<?xml version="1.0" encoding="utf-8"?>
<?xml-stylesheet type="text/xsl" href="rss1.xsl"?>
<rss version="2.0" xmlns:atom="http://www.w3.org/2005/Atom" xmlns:content="http://purl.org/rss/1.0/modules/content/" xmlns:dc="http://purl.org/dc/elements/1.1/" xmlns:media="http://search.yahoo.com/mrss/">
<channel>
 <title>Getty</title>
 <link>http://www.gettyimg.com/</link>
 <atom:link href="http://www.gettyimg.com/" rel="self" type="application/rss+xml" />

 
                <item>
                <title><![CDATA[【Music Videos】Bigod 20 - Carpe Diem (Clean)]]></title>
                <link><![CDATA[https://sharemania.us/threads/bigod-20-carpe-diem-clean.240260/]]></link>
                <description><![CDATA[<article>
<blockquote class="messageText SelectQuoteContainer ugc baseHtml">
<img src="https://i.ibb.co/tLzVNSm/Bigod-20-Carpe-Diem-vob-thumbs-2024-03-18-22-24-35.jpg" class="bbCodeImage LbImage" alt="[​IMG]" data-url="https://i.ibb.co/tLzVNSm/Bigod-20-Carpe-Diem-vob-thumbs-2024-03-18-22-24-35.jpg" style=""> <br>
<br>
<div class="ToggleTriggerAnchor bbCodeSpoilerContainer">
<button type="button" class="button bbCodeSpoilerButton ToggleTrigger Tooltip JsOnly" data-target="> .SpoilerTarget"><span>Spoiler: <span class="SpoilerTitle">MediaInfo</span></span></button>
<div class="SpoilerTarget bbCodeSpoilerText">Bigod 20 - Carpe Diem.vob<br>
Format : MPEG-PS<br>
File size : 235 MiB<br>
Duration : 3 min 26 s<br>
Overall bit rate mode : Variable<br>
Overall bit rate : 9 552 kb/s<br>
Frame rate : 29.970 FPS<br>
Writing library : <br>
<br>
Video<br>
ID : 224 (0xE0)<br>
Format : MPEG Video<br>
Format version : Version 2<br>
Format profile : Main@Main<br>
Format settings : CustomMatrix / BVOP<br>
Format settings, BVOP : Yes<br>
Format settings, Matrix : Custom<br>
Format settings, GOP : Variable<br>
Duration : 3 min 26 s<br>
Bit rate mode : Variable<br>
Bit rate : 7 826 kb/s<br>
Maximum bit rate : 8 000 kb/s<br>
Width : 720 pixels<br>
Height : 480 pixels<br>
Display aspect ratio : 4:3<br>
Frame rate : 29.970 (30000/1001) FPS<br>
Standard : NTSC<br>
Color space : YUV<br>
Chroma subsampling : 4:2:0<br>
Bit depth : 8 bits<br>
Scan type : Progressive<br>
Compression mode : Lossy<br>
Bits/(Pixel*Frame) : 0.756<br>
Time code of first frame : 00:00:00;00<br>
Time code source : Group of pictures header<br>
Stream size : 193 MiB (82%)<br>
Writing library : <br>
Color primaries : BT.601 NTSC<br>
Transfer characteristics : BT.601<br>
Matrix coefficients : BT.601<br>
<br>
Audio<br>
ID : 189 (0xBD)-160 (0xA0)<br>
Format : PCM<br>
Format settings : Big / Signed<br>
Muxing mode : DVD-Video<br>
Duration : 3 min 26 s<br>
Bit rate mode : Constant<br>
Bit rate : 1 536 kb/s<br>
Channel(s) : 2 channels<br>
Sampling rate : 48.0 kHz<br>
Bit depth : 16 bits<br>
Stream size : 37.8 MiB (16%)</div>
</div><br>
<div class="bbCodeBlock bbCodeVfcHH HiddenContent">
<div class="attribution type">Hidden Content:</div>
<blockquote>You must reply before you can see the hidden data contained here.</blockquote>
</div>
<div class="messageTextEndMarker">&nbsp;</div>
</blockquote>
</article>]]></description>
                <author><![CDATA[DJ-RoGeRs-BS]]></author>
                </item>

                </channel></rss>